<svg width="512" height="512" viewBox="0 0 512 512" fill="none" xmlns="http://www.w3.org/2000/svg">
<g clip-path="url(#clip0_13_1060)">
<g clip-path="url(#clip1_13_1060)">
<path fill-rule="evenodd" clip-rule="evenodd" d="M460.943 364.935C457.828 370.79 459.637 378.159 465.324 381.571V381.571C471.006 384.98 478.403 383.151 481.544 377.317C533.752 280.363 518.924 156.846 437.058 74.9807C355.193 -6.88471 231.676 -21.7134 134.722 30.4946C128.888 33.6358 127.059 41.0332 130.468 46.7145V46.7145C133.88 52.4018 141.249 54.2111 147.104 51.0956C234.816 4.42589 346.181 18.0444 420.088 91.9512C493.994 165.858 507.613 277.223 460.943 364.935Z" fill="url(#paint0_linear_13_1060)"/>
<path fill-rule="evenodd" clip-rule="evenodd" d="M413.862 350.694C419.543 354.103 426.951 352.275 430.007 346.396C468.403 272.551 456.612 179.387 394.631 117.407C332.651 55.4269 239.488 43.6349 165.642 82.0313C159.764 85.0878 157.935 92.495 161.344 98.1763V98.1763C164.756 103.864 172.122 105.662 178.033 102.654C242.623 69.7813 323.639 80.356 377.661 134.378C431.682 188.399 442.257 269.416 409.385 334.006C406.376 339.917 408.175 347.282 413.862 350.694V350.694Z" fill="url(#paint1_linear_13_1060)"/>
<path fill-rule="evenodd" clip-rule="evenodd" d="M362.401 319.818C368.082 323.226 375.505 321.405 378.4 315.446C403.031 264.752 394.3 201.928 352.205 159.834C310.111 117.739 247.287 109.008 196.593 133.639C190.634 136.534 188.813 143.957 192.221 149.638V149.638C195.634 155.326 202.994 157.1 209.014 154.317C250.417 135.175 301.101 142.671 335.235 176.804C369.368 210.938 376.864 261.622 357.722 303.025C354.939 309.045 356.713 316.405 362.401 319.818V319.818Z" fill="url(#paint2_linear_13_1060)"/>
<path fill-rule="evenodd" clip-rule="evenodd" d="M310.939 288.94C316.621 292.349 324.091 290.53 326.562 284.382C337.575 256.981 331.981 224.461 309.779 202.26C287.578 180.058 255.058 174.464 227.657 185.477C221.509 187.948 219.69 195.418 223.099 201.099V201.099C226.511 206.787 233.881 208.474 240.2 206.459C258.142 200.739 278.575 204.996 292.809 219.23C307.043 233.464 311.3 253.897 305.58 271.839C303.565 278.158 305.252 285.527 310.939 288.94V288.94Z" fill="url(#paint3_linear_13_1060)"/>
<path fill-rule="evenodd" clip-rule="evenodd" d="M266.333 262.177C268.227 263.313 270.74 262.702 271.371 260.585C272.995 255.135 271.656 248.99 267.352 244.686C263.049 240.383 256.903 239.043 251.453 240.668C249.337 241.299 248.725 243.811 249.862 245.705V245.705C250.999 247.601 253.51 248.094 255.719 248.006C257.871 247.921 260.052 248.7 261.695 250.343C263.339 251.987 264.118 254.167 264.032 256.32C263.944 258.529 264.438 261.039 266.333 262.177V262.177Z" fill="url(#paint4_linear_13_1060)"/>
</g>
<g clip-path="url(#clip2_13_1060)">
<path fill-rule="evenodd" clip-rule="evenodd" d="M51.1339 147.065C54.2494 141.21 52.4401 133.841 46.7528 130.429V130.429C41.0715 127.02 33.6741 128.849 30.5329 134.683C-21.6751 231.637 -6.8464 355.154 75.019 437.019C156.884 518.885 280.401 533.713 377.355 481.505C383.189 478.364 385.018 470.967 381.61 465.286V465.286C378.197 459.598 370.828 457.789 364.973 460.904C277.261 507.574 165.896 493.956 91.9895 420.049C18.0827 346.142 4.4642 234.777 51.1339 147.065Z" fill="url(#paint5_linear_13_1060)"/>
<path fill-rule="evenodd" clip-rule="evenodd" d="M98.215 161.306C92.5337 157.897 85.1265 159.725 82.0701 165.604C43.6737 239.449 55.4656 332.613 117.446 394.593C179.426 456.573 272.589 468.365 346.435 429.969C352.313 426.912 354.142 419.505 350.733 413.824V413.824C347.321 408.136 339.955 406.338 334.044 409.346C269.454 442.219 188.438 431.644 134.416 377.622C80.3947 323.601 69.8201 242.584 102.692 177.994C105.701 172.083 103.902 164.718 98.215 161.306V161.306Z" fill="url(#paint6_linear_13_1060)"/>
<path fill-rule="evenodd" clip-rule="evenodd" d="M149.676 192.182C143.995 188.774 136.573 190.595 133.677 196.554C109.046 247.248 117.777 310.072 159.872 352.166C201.966 394.261 264.79 402.992 315.484 378.361C321.443 375.466 323.264 368.043 319.856 362.362V362.362C316.443 356.674 309.083 354.9 303.063 357.683C261.66 376.825 210.976 369.329 176.842 335.196C142.709 301.062 135.213 250.378 154.355 208.975C157.139 202.955 155.364 195.595 149.676 192.182V192.182Z" fill="url(#paint7_linear_13_1060)"/>
<path fill-rule="evenodd" clip-rule="evenodd" d="M201.138 223.06C195.456 219.651 187.986 221.47 185.516 227.618C174.502 255.019 180.097 287.539 202.298 309.74C224.499 331.942 257.019 337.536 284.42 326.523C290.568 324.052 292.387 316.582 288.978 310.901V310.901C285.566 305.213 278.196 303.526 271.877 305.541C253.935 311.261 233.502 307.004 219.268 292.77C205.035 278.536 200.778 258.103 206.498 240.161C208.512 233.842 206.825 226.473 201.138 223.06V223.06Z" fill="url(#paint8_linear_13_1060)"/>
<path fill-rule="evenodd" clip-rule="evenodd" d="M245.744 249.823C243.85 248.687 241.337 249.298 240.706 251.415C239.082 256.865 240.421 263.01 244.725 267.314C249.029 271.617 255.174 272.957 260.624 271.332C262.74 270.701 263.352 268.189 262.216 266.295V266.295C261.078 264.399 258.567 263.906 256.358 263.994C254.206 264.079 252.025 263.3 250.382 261.657C248.738 260.013 247.959 257.833 248.045 255.68C248.133 253.471 247.639 250.961 245.744 249.823V249.823Z" fill="url(#paint9_linear_13_1060)"/>
</g>
<path d="M364.198 146.539C336.555 106.975 281.957 95.2476 242.484 120.397L173.171 164.584C163.803 170.474 155.767 178.255 149.577 187.428C143.387 196.602 139.18 206.966 137.225 217.858C133.918 236.202 136.826 255.125 145.486 271.632C139.551 280.633 135.502 290.745 133.586 301.356C131.611 312.466 131.875 323.859 134.362 334.866C136.849 345.873 141.508 356.273 148.067 365.456C175.71 405.025 230.31 416.755 269.778 391.597L339.107 347.411C348.473 341.52 356.506 333.738 362.693 324.565C368.88 315.392 373.085 305.028 375.037 294.137C378.349 275.794 375.449 256.87 366.798 240.36C372.729 231.358 376.774 221.248 378.689 210.639C380.666 199.529 380.404 188.135 377.918 177.128C375.431 166.121 370.771 155.721 364.211 146.539" fill="#FF3E00"/>
<path d="M364.198 146.539C336.555 106.975 281.957 95.2476 242.484 120.397L173.171 164.584C163.803 170.474 155.767 178.255 149.577 187.428C143.387 196.602 139.18 206.966 137.225 217.858C133.918 236.202 136.826 255.125 145.486 271.632C139.551 280.633 135.502 290.745 133.586 301.356C131.611 312.466 131.875 323.859 134.362 334.866C136.849 345.873 141.508 356.273 148.067 365.456C175.71 405.025 230.31 416.755 269.778 391.597L339.107 347.411C348.473 341.52 356.506 333.738 362.693 324.565C368.88 315.392 373.085 305.028 375.037 294.137C378.349 275.794 375.449 256.87 366.798 240.36C372.729 231.358 376.774 221.248 378.689 210.639C380.666 199.529 380.404 188.135 377.918 177.128C375.431 166.121 370.771 155.721 364.211 146.539" fill="url(#paint10_linear_13_1060)"/>
<path d="M235.751 369.18C224.841 372.016 213.324 371.436 202.754 367.518C192.184 363.599 183.071 356.532 176.646 347.27C172.702 341.749 169.901 335.496 168.405 328.878C166.91 322.26 166.751 315.41 167.938 308.729C168.34 306.536 168.893 304.374 169.594 302.257L170.899 298.27L174.453 300.878C182.653 306.907 191.822 311.491 201.564 314.433L204.14 315.215L203.903 317.788C203.591 321.444 204.582 325.093 206.702 328.088C208.637 330.88 211.382 333.01 214.567 334.192C217.752 335.373 221.223 335.548 224.511 334.693C226.015 334.293 227.449 333.665 228.764 332.832L298.089 288.64C299.786 287.572 301.241 286.163 302.363 284.501C303.485 282.839 304.248 280.962 304.604 278.989C304.96 276.975 304.91 274.911 304.46 272.916C304.009 270.921 303.165 269.036 301.978 267.371C300.043 264.579 297.297 262.448 294.113 261.266C290.928 260.084 287.457 259.908 284.169 260.761C282.665 261.161 281.231 261.788 279.917 262.621L253.462 279.486C249.108 282.252 244.357 284.337 239.374 285.669C228.464 288.505 216.947 287.925 206.377 284.007C195.807 280.089 186.694 273.021 180.269 263.759C176.324 258.238 173.522 251.985 172.026 245.367C170.53 238.749 170.371 231.899 171.558 225.218C172.737 218.668 175.269 212.437 178.993 206.922C182.717 201.407 187.551 196.729 193.186 193.189L262.52 149.006C266.873 146.236 271.623 144.148 276.607 142.815C287.517 139.979 299.035 140.56 309.605 144.478C320.175 148.396 329.287 155.463 335.713 164.725C339.657 170.246 342.459 176.499 343.955 183.117C345.45 189.735 345.61 196.585 344.423 203.266C344.018 205.458 343.464 207.621 342.765 209.738L341.46 213.725L337.908 211.123C329.709 205.093 320.54 200.509 310.797 197.567L308.219 196.786L308.458 194.213C308.77 190.555 307.78 186.904 305.662 183.905C303.727 181.113 300.981 178.983 297.796 177.801C294.612 176.62 291.141 176.445 287.853 177.3C286.349 177.7 284.915 178.327 283.601 179.161L214.256 223.355C212.56 224.422 211.105 225.831 209.984 227.493C208.863 229.154 208.101 231.031 207.747 233.003C207.39 235.017 207.437 237.082 207.887 239.078C208.337 241.073 209.181 242.958 210.368 244.624C212.303 247.416 215.048 249.546 218.233 250.729C221.417 251.911 224.888 252.087 228.176 251.235C229.68 250.834 231.114 250.206 232.429 249.374L258.881 232.517C263.233 229.746 267.984 227.659 272.969 226.329C283.878 223.493 295.395 224.073 305.965 227.991C316.534 231.91 325.647 238.977 332.072 248.239C336.016 253.76 338.819 260.012 340.314 266.631C341.81 273.249 341.969 280.099 340.782 286.78C339.606 293.329 337.077 299.562 333.356 305.078C329.635 310.595 324.804 315.275 319.172 318.819L249.839 362.99C245.486 365.76 240.736 367.848 235.751 369.18Z" fill="white"/>
</g>
<defs>
<linearGradient id="paint0_linear_13_1060" x1="193.598" y1="-29.0621" x2="541.101" y2="318.441" gradientUnits="userSpaceOnUse">
<stop stop-color="#FF3E00"/>
<stop offset="1" stop-color="#FF0697" stop-opacity="0"/>
</linearGradient>
<linearGradient id="paint1_linear_13_1060" x1="208.5" y1="37.8468" x2="473.681" y2="303.458" gradientUnits="userSpaceOnUse">
<stop stop-color="#FF0697"/>
<stop offset="1" stop-color="#AC06FF" stop-opacity="0"/>
</linearGradient>
<linearGradient id="paint2_linear_13_1060" x1="223.306" y1="106.083" x2="405.956" y2="288.733" gradientUnits="userSpaceOnUse">
<stop stop-color="#AC06FF"/>
<stop offset="1" stop-color="#5A00CC" stop-opacity="0"/>
</linearGradient>
<linearGradient id="paint3_linear_13_1060" x1="238.284" y1="173.491" x2="338.36" y2="273.72" gradientUnits="userSpaceOnUse">
<stop stop-color="#FF0697"/>
<stop offset="1" stop-color="#AC06FF" stop-opacity="0"/>
</linearGradient>
<linearGradient id="paint4_linear_13_1060" x1="252.468" y1="239.138" x2="272.901" y2="259.571" gradientUnits="userSpaceOnUse">
<stop stop-color="#FF3E00"/>
<stop offset="1" stop-color="#FF0697" stop-opacity="0"/>
</linearGradient>
<linearGradient id="paint5_linear_13_1060" x1="318.479" y1="541.062" x2="-29.0238" y2="193.559" gradientUnits="userSpaceOnUse">
<stop stop-color="#FF3E00"/>
<stop offset="1" stop-color="#FF0697" stop-opacity="0"/>
</linearGradient>
<linearGradient id="paint6_linear_13_1060" x1="303.577" y1="474.153" x2="38.3958" y2="208.542" gradientUnits="userSpaceOnUse">
<stop stop-color="#FF0697"/>
<stop offset="1" stop-color="#AC06FF" stop-opacity="0"/>
</linearGradient>
<linearGradient id="paint7_linear_13_1060" x1="288.771" y1="405.917" x2="106.121" y2="223.267" gradientUnits="userSpaceOnUse">
<stop stop-color="#AC06FF"/>
<stop offset="1" stop-color="#5A00CC" stop-opacity="0"/>
</linearGradient>
<linearGradient id="paint8_linear_13_1060" x1="273.794" y1="338.509" x2="173.717" y2="238.28" gradientUnits="userSpaceOnUse">
<stop stop-color="#FF0697"/>
<stop offset="1" stop-color="#AC06FF" stop-opacity="0"/>
</linearGradient>
<linearGradient id="paint9_linear_13_1060" x1="259.609" y1="272.862" x2="239.176" y2="252.429" gradientUnits="userSpaceOnUse">
<stop stop-color="#FF3E00"/>
<stop offset="1" stop-color="#FF0697" stop-opacity="0"/>
</linearGradient>
<linearGradient id="paint10_linear_13_1060" x1="379.74" y1="107.15" x2="132.278" y2="404.849" gradientUnits="userSpaceOnUse">
<stop stop-color="#FF3E00"/>
<stop offset="0.510417" stop-color="#FF0697"/>
<stop offset="1" stop-color="#AC06FF"/>
</linearGradient>
<clipPath id="clip0_13_1060">
<rect width="512" height="512" fill="white"/>
</clipPath>
<clipPath id="clip1_13_1060">
<rect width="512" height="512" fill="white" transform="translate(-106 256) rotate(-45)"/>
</clipPath>
<clipPath id="clip2_13_1060">
<rect width="512" height="512" fill="white" transform="translate(618.077 256) rotate(135)"/>
</clipPath>
</defs>
</svg>
