<svg width="512" height="512" viewBox="0 0 512 512" fill="none" xmlns="http://www.w3.org/2000/svg">
<path d="M356.446 98.5659L282.016 145.075C247.749 166.487 230.65 204.98 234.858 242.622C234.423 245.597 234.197 248.64 234.197 251.736V366.479C234.197 400.945 262.138 428.885 296.604 428.885C331.07 428.885 359.01 400.945 359.01 366.479V336.629L389.678 317.465C389.692 317.457 389.706 317.448 389.721 317.439L464.151 270.93C511.748 241.188 526.222 178.492 496.48 130.895C466.738 83.2984 404.043 68.824 356.446 98.5659Z" fill="#FF3E00"/>
<path d="M317.392 230.903C317.513 224.873 320.58 219.022 326.077 215.588L400.507 169.079C409.161 163.671 420.56 166.303 425.967 174.957C431.375 183.611 428.743 195.01 420.089 200.417L392.981 217.357L392.982 217.359C392.878 217.423 392.774 217.487 392.67 217.551C392.591 217.601 392.512 217.65 392.433 217.699C367.272 233.421 353.747 260.719 354.448 288.376C359 286.891 363.446 284.834 367.69 282.183L442.12 235.674C470.245 218.099 478.798 181.052 461.224 152.926C443.649 124.801 406.602 116.248 378.476 133.822L304.046 180.331C285.941 191.644 275.947 211.026 275.811 230.903H275.771V366.479C275.771 377.984 285.098 387.311 296.603 387.311C308.109 387.311 317.436 377.984 317.436 366.479V230.903H317.392Z" fill="white"/>
<path d="M259.477 133.498C228.549 89.233 167.464 76.1126 123.3 104.251L45.7519 153.688C35.2703 160.278 26.2794 168.983 19.3542 179.246C12.429 189.51 7.72191 201.105 5.53403 213.292C1.83501 233.816 5.08752 254.988 14.7767 273.455C8.13637 283.526 3.60719 294.84 1.46288 306.711C-0.746055 319.142 -0.450838 331.888 2.33122 344.203C5.11328 356.518 10.3262 368.154 17.6642 378.428C48.5919 422.699 109.68 435.822 153.838 407.675L231.404 358.239C241.883 351.647 250.871 342.942 257.794 332.678C264.716 322.415 269.42 310.82 271.604 298.634C275.309 278.112 272.065 256.94 262.386 238.468C269.021 228.396 273.547 217.084 275.69 205.215C277.902 192.785 277.609 180.038 274.827 167.722C272.045 155.407 266.832 143.771 259.492 133.498" fill="#FF3E00"/>
<path d="M115.768 382.594C103.561 385.767 90.6753 385.118 78.8495 380.734C67.0238 376.351 56.8281 368.444 49.6391 358.081C45.2269 351.904 42.0925 344.908 40.4196 337.504C38.7467 330.099 38.5689 322.435 39.8969 314.961C40.3463 312.507 40.9653 310.088 41.7495 307.72L43.2097 303.259L47.1857 306.176C56.3596 312.922 66.618 318.051 77.5186 321.343L80.4002 322.217L80.1356 325.096C79.7855 329.186 80.8948 333.269 83.267 336.619C85.4316 339.743 88.5033 342.127 92.0667 343.449C95.6301 344.77 99.5134 344.966 103.192 344.009C104.874 343.562 106.479 342.86 107.95 341.927L185.513 292.485C187.411 291.29 189.039 289.713 190.294 287.854C191.549 285.994 192.403 283.894 192.802 281.687C193.199 279.434 193.144 277.124 192.64 274.892C192.136 272.66 191.192 270.551 189.863 268.688C187.698 265.565 184.627 263.181 181.064 261.858C177.501 260.535 173.618 260.338 169.939 261.292C168.256 261.74 166.652 262.442 165.181 263.374L135.582 282.243C130.711 285.338 125.396 287.67 119.821 289.16C107.615 292.333 94.7285 291.684 82.9026 287.301C71.0768 282.917 60.8811 275.01 53.6924 264.647C49.279 258.47 46.1435 251.474 44.4701 244.07C42.7966 236.665 42.6189 229.001 43.9472 221.527C45.2653 214.199 48.0983 207.227 52.265 201.056C56.4318 194.886 61.8404 189.653 68.1451 185.692L145.717 136.258C150.587 133.159 155.902 130.824 161.478 129.332C173.685 126.159 186.571 126.809 198.397 131.192C210.222 135.576 220.418 143.483 227.607 153.846C232.02 160.023 235.155 167.018 236.828 174.423C238.502 181.827 238.68 189.492 237.352 196.966C236.899 199.419 236.279 201.838 235.497 204.207L234.036 208.668L230.063 205.756C220.89 199.01 210.632 193.881 199.731 190.59L196.846 189.716L197.114 186.837C197.463 182.744 196.355 178.66 193.985 175.305C191.82 172.181 188.749 169.797 185.185 168.476C181.622 167.154 177.739 166.958 174.061 167.915C172.378 168.362 170.773 169.064 169.302 169.996L91.7186 219.442C89.8207 220.636 88.1927 222.213 86.9387 224.071C85.6847 225.93 84.8322 228.03 84.4357 230.237C84.0359 232.49 84.0893 234.801 84.5928 237.033C85.0962 239.265 86.0397 241.375 87.3679 243.238C89.5332 246.362 92.6047 248.746 96.1676 250.068C99.7306 251.391 103.614 251.588 107.292 250.634C108.975 250.186 110.579 249.484 112.051 248.553L141.646 229.693C146.515 226.593 151.83 224.258 157.407 222.77C169.613 219.597 182.499 220.246 194.324 224.629C206.15 229.013 216.345 236.92 223.533 247.283C227.946 253.459 231.082 260.455 232.755 267.86C234.429 275.265 234.606 282.929 233.278 290.403C231.963 297.731 229.133 304.704 224.97 310.876C220.807 317.048 215.402 322.284 209.101 326.25L131.529 375.668C126.66 378.768 121.344 381.104 115.768 382.594Z" fill="white"/>
</svg>
